<?xml version="1.0" encoding="UTF-8"?>
<svg id="_レイヤー_2" data-name="レイヤー 2" xmlns="http://www.w3.org/2000/svg" viewBox="0 0 750.67 102.43">
  <g id="_レイヤー_1-2" data-name="レイヤー 1">
    <g>
      <g>
        <g>
          <path d="M86.72,41.42c9.43,5.8,15.71,16.21,15.71,28.08,0,18.18-14.75,32.93-32.94,32.93-11.81,0-22.17-6.22-27.98-15.57,5.3-3.94,8.73-10.25,8.73-17.36,0-6.42-2.79-12.18-7.23-16.15,4.33-2.51,7.94-6.14,10.43-10.49,3.93,4.43,9.66,7.22,16.05,7.22,7.06,0,13.32-3.4,17.23-8.66Z"/>
          <path d="M90.95,28.62c0,4.8-1.57,9.23-4.23,12.8-5.01-3.08-10.91-4.86-17.23-4.86-5.24,0-10.2,1.23-14.6,3.41,1.51-3.48,2.35-7.32,2.35-11.35,0-5.19-1.38-10.05-3.8-14.24,3.93-4.43,9.66-7.22,16.05-7.22,11.86,0,21.46,9.61,21.46,21.46Z"/>
          <path d="M86.72,41.42c-3.91,5.26-10.17,8.66-17.23,8.66-6.39,0-12.12-2.79-16.05-7.22.54-.93,1.03-1.89,1.45-2.89,4.4-2.18,9.36-3.41,14.6-3.41,6.32,0,12.22,1.78,17.23,4.86Z"/>
          <path d="M57.24,28.62c0,4.03-.84,7.87-2.35,11.35-.9.45-1.77.93-2.62,1.45-2.67-3.57-4.24-8-4.24-12.8,0-5.47,2.04-10.45,5.41-14.24,2.42,4.19,3.8,9.05,3.8,14.24Z"/>
          <path d="M54.89,39.97c-.42,1-.91,1.96-1.45,2.89-.41-.46-.8-.94-1.17-1.44.85-.52,1.72-1,2.62-1.45Z"/>
          <path d="M52.27,41.42c.37.5.76.98,1.17,1.44-2.49,4.35-6.1,7.98-10.43,10.49-.48-.43-.98-.83-1.5-1.22,2.7-4.35,6.39-8.02,10.76-10.71Z"/>
          <path d="M28.62,0c10.62,0,19.89,5.78,24.82,14.38-3.37,3.79-5.41,8.77-5.41,14.24,0,4.8,1.57,9.23,4.24,12.8-4.37,2.69-8.06,6.36-10.76,10.71-3.6-2.68-8.06-4.26-12.89-4.26-5.53,0-10.57,2.07-14.4,5.48C5.71,48.4,0,39.18,0,28.62,0,12.81,12.81,0,28.62,0Z"/>
          <path d="M43.01,53.35c4.44,3.97,7.23,9.73,7.23,16.15,0,7.11-3.43,13.42-8.73,17.36-3.14-5.04-4.95-10.99-4.95-17.36,0-5.25,1.23-10.21,3.42-14.61,1.04-.45,2.06-.96,3.03-1.54Z"/>
          <path d="M41.51,52.13c.52.39,1.02.79,1.5,1.22-.97.58-1.99,1.09-3.03,1.54.46-.95.98-1.87,1.53-2.76Z"/>
          <path d="M41.51,52.13c-.55.89-1.07,1.81-1.53,2.76-3.48,1.51-7.32,2.35-11.36,2.35-5.26,0-10.18-1.41-14.4-3.89,3.83-3.41,8.87-5.48,14.4-5.48,4.83,0,9.29,1.58,12.89,4.26Z"/>
          <path d="M39.98,54.89c-2.19,4.4-3.42,9.36-3.42,14.61,0,6.37,1.81,12.32,4.95,17.36-3.6,2.68-8.06,4.26-12.89,4.26-11.95,0-21.63-9.68-21.63-21.62,0-6.42,2.79-12.18,7.23-16.15,4.22,2.48,9.14,3.89,14.4,3.89,4.04,0,7.88-.84,11.36-2.35Z"/>
        </g>
        <g>
          <path d="M86.72,41.42c9.43,5.8,15.71,16.21,15.71,28.08,0,18.18-14.75,32.93-32.94,32.93-11.81,0-22.17-6.22-27.98-15.57,5.3-3.94,8.73-10.25,8.73-17.36,0-6.42-2.79-12.18-7.23-16.15,4.33-2.51,7.94-6.14,10.43-10.49,3.93,4.43,9.66,7.22,16.05,7.22,7.06,0,13.32-3.4,17.23-8.66Z" fill="#545454"/>
          <path d="M90.95,28.62c0,4.8-1.57,9.23-4.23,12.8-5.01-3.08-10.91-4.86-17.23-4.86-5.24,0-10.2,1.23-14.6,3.41,1.51-3.48,2.35-7.32,2.35-11.35,0-5.19-1.38-10.05-3.8-14.24,3.93-4.43,9.66-7.22,16.05-7.22,11.86,0,21.46,9.61,21.46,21.46Z" fill="#929292"/>
          <path d="M86.72,41.42c-3.91,5.26-10.17,8.66-17.23,8.66-6.39,0-12.12-2.79-16.05-7.22.54-.93,1.03-1.89,1.45-2.89,4.4-2.18,9.36-3.41,14.6-3.41,6.32,0,12.22,1.78,17.23,4.86Z" fill="#8c8c8c"/>
          <path d="M57.24,28.62c0,4.03-.84,7.87-2.35,11.35-.9.45-1.77.93-2.62,1.45-2.67-3.57-4.24-8-4.24-12.8,0-5.47,2.04-10.45,5.41-14.24,2.42,4.19,3.8,9.05,3.8,14.24Z" fill="#929292"/>
          <path d="M54.89,39.97c-.42,1-.91,1.96-1.45,2.89-.41-.46-.8-.94-1.17-1.44.85-.52,1.72-1,2.62-1.45Z" fill="#8c8c8c"/>
          <path d="M52.27,41.42c.37.5.76.98,1.17,1.44-2.49,4.35-6.1,7.98-10.43,10.49-.48-.43-.98-.83-1.5-1.22,2.7-4.35,6.39-8.02,10.76-10.71Z" fill="#505050"/>
          <path d="M28.62,0c10.62,0,19.89,5.78,24.82,14.38-3.37,3.79-5.41,8.77-5.41,14.24,0,4.8,1.57,9.23,4.24,12.8-4.37,2.69-8.06,6.36-10.76,10.71-3.6-2.68-8.06-4.26-12.89-4.26-5.53,0-10.57,2.07-14.4,5.48C5.71,48.4,0,39.18,0,28.62,0,12.81,12.81,0,28.62,0Z"/>
          <path d="M43.01,53.35c4.44,3.97,7.23,9.73,7.23,16.15,0,7.11-3.43,13.42-8.73,17.36-3.14-5.04-4.95-10.99-4.95-17.36,0-5.25,1.23-10.21,3.42-14.61,1.04-.45,2.06-.96,3.03-1.54Z" fill="#505050"/>
          <path d="M41.51,52.13c.52.39,1.02.79,1.5,1.22-.97.58-1.99,1.09-3.03,1.54.46-.95.98-1.87,1.53-2.76Z" fill="#4c4c4c"/>
          <path d="M41.51,52.13c-.55.89-1.07,1.81-1.53,2.76-3.48,1.51-7.32,2.35-11.36,2.35-5.26,0-10.18-1.41-14.4-3.89,3.83-3.41,8.87-5.48,14.4-5.48,4.83,0,9.29,1.58,12.89,4.26Z" fill="#545454"/>
          <path d="M39.98,54.89c-2.19,4.4-3.42,9.36-3.42,14.61,0,6.37,1.81,12.32,4.95,17.36-3.6,2.68-8.06,4.26-12.89,4.26-11.95,0-21.63-9.68-21.63-21.62,0-6.42,2.79-12.18,7.23-16.15,4.22,2.48,9.14,3.89,14.4,3.89,4.04,0,7.88-.84,11.36-2.35Z" fill="#333"/>
        </g>
      </g>
      <g>
        <path d="M178.67,27.13h-32.4v-6.82h72.81v6.82h-32.44v59.87h-7.98V27.13Z"/>
        <path d="M250.66,20.1h8.42l36.29,66.9h-8.84l-10.68-19.92h-41.94l-10.71,19.92h-8.83l36.29-66.9ZM272.19,60.24l-17.3-32.14-17.32,32.14h34.62Z"/>
        <path d="M308.3,20.31h7.98v30.75l47.76-30.75h12.22l-50.29,32.24,52.63,34.45h-13.18l-49.14-31.93v31.93h-7.98V20.31Z"/>
        <path d="M391.82,20.31h58.39v6.82h-50.41v22.55h38.8v6.82h-38.8v23.66h50.44v6.82h-58.42V20.31Z"/>
        <path d="M472.42,73.21l5.29-4.93c6.71,8.68,18.49,13.21,31.79,13.21s24.36-3.88,24.36-12.2-8.64-11.03-22.88-12.63l-10.6-1.3c-16.62-1.75-26.14-7.13-26.14-17.93,0-11.71,14.55-18.34,31.74-18.34,12.74,0,25.69,3.96,32.77,12.05l-5.18,5.15c-5.86-6.97-16.99-10.46-27.9-10.46s-23.1,3.63-23.1,11.17c0,6.45,6.29,9.88,19.65,11.23l10.76,1.3c17.75,2.02,29.23,6.46,29.23,19.13s-14.82,19.55-33,19.55c-15.33,0-29.05-5.21-36.78-15Z"/>
        <path d="M564.93,20.31h7.98v66.69h-7.98V20.31Z"/>
        <path d="M600.99,20.31h29.89c25.17,0,41.25,12.83,41.25,33.32s-16.09,33.37-41.25,33.37h-29.89V20.31ZM630.71,80.19c20.02,0,32.87-9.63,32.87-26.56s-12.85-26.53-32.87-26.53h-21.75v53.08h21.75Z"/>
        <path d="M692.25,20.31h58.39v6.82h-50.41v22.55h38.8v6.82h-38.8v23.66h50.44v6.82h-58.42V20.31Z"/>
      </g>
    </g>
  </g>
</svg>